<?xml version="1.0" encoding="UTF-8" standalone="no"?>
<svg width="186px" height="177px" viewBox="0 0 186 177" version="1.1" xmlns="http://www.w3.org/2000/svg" xmlns:xlink="http://www.w3.org/1999/xlink" xmlns:sketch="http://www.bohemiancoding.com/sketch/ns">
    <!-- Generator: Sketch 3.3.2 (12043) - http://www.bohemiancoding.com/sketch -->
    <title>Silhouette + FALCOR</title>
    <desc>Created with Sketch.</desc>
    <defs></defs>
    <g id="Intro-Animation" stroke="none" stroke-width="1" fill="none" fill-rule="evenodd" sketch:type="MSPage">
        <g id="Silhouette-+-FALCOR" sketch:type="MSLayerGroup" fill="#FFFFFF">
            <g id="Silhouette" transform="translate(42.000000, 0.378876)" sketch:type="MSShapeGroup">
                <path d="M0.0146883296,58.3432521 L0.0146883296,43.8589508 L0.0146883296,29.3755001 L0.0146883296,29.3755001 L0.0132526282,29.3746496 L0.0146883296,29.3737993 L0.0146883296,29.3717032 L0.0164575822,29.3727514 L12.23825,22.1339722 L24.464683,14.8918215 L24.464683,29.3746496 L24.464683,43.8589508 L24.464683,58.3432521 L24.464683,72.8319729 L12.23825,65.5854027 L0.0146883296,58.3432521 L0.0146883296,58.3432521 Z M48.9175491,29.3717032 L36.6911161,22.1339722 L24.4661187,14.887402 L36.6911161,7.64525139 L48.9175491,0.403100775 L48.9175491,14.887402 L48.9175491,29.3717032 Z M24.464683,72.8319729 L12.2396857,80.0726503 L0.0146883296,87.3148009 L0.0146883296,72.8319729 L0.0146883296,58.3476716 L12.2396857,65.5898222 L24.464683,72.8319729 Z M24.464683,14.887402 L24.464683,29.3717032 L24.464683,43.8589508 L36.6896804,36.6168002 L48.9146777,29.3746496 L36.6896804,22.1339722 L24.464683,14.887402 Z" id="Shape"></path>
                <path d="M55.0523012,58.3417789 L55.0523012,43.8574777 L55.0523012,29.3740269 L55.0523012,29.3740269 L55.0508655,29.3731764 L55.0523012,29.3723261 L55.0523012,29.3702301 L55.0540704,29.3712782 L67.2758628,22.132499 L79.5022958,14.8903484 L79.5022958,29.3731764 L79.5022958,43.8574777 L79.5022958,58.3417789 L79.5022958,72.8304997 L67.2758628,65.5839295 L55.0523012,58.3417789 L55.0523012,58.3417789 Z M103.955162,29.3702301 L91.7287289,22.132499 L79.5037315,14.8859288 L91.7287289,7.64377821 L103.955162,0.401627596 L103.955162,14.8859288 L103.955162,29.3702301 Z M79.5022958,72.8304997 L67.2772985,80.0711771 L55.0523012,87.3133277 L55.0523012,72.8304997 L55.0523012,58.3461984 L67.2772985,65.5883491 L79.5022958,72.8304997 Z M79.5022958,14.8859288 L79.5022958,29.3702301 L79.5022958,43.8574777 L91.7272932,36.615327 L103.952291,29.3731764 L91.7272932,22.132499 L79.5022958,14.8859288 Z" id="Shape-Copy" transform="translate(79.503014, 43.857478) scale(-1, 1) translate(-79.503014, -43.857478) "></path>
                <path d="M49.1802341,94.4292616 L39.7592099,100.009189 L27.6719295,107.169755 L27.6719295,107.169755 L27.6719295,107.098393 L39.7061483,100.009189 L49.1802341,94.4292616 L49.1802341,94.4292616 Z M51.9906428,92.7740226 L64.2092046,100.009189 L76.434202,107.25134 L64.2092046,114.49349 L51.9842073,121.74006 L39.7592099,114.49349 L27.5342126,107.25134 L27.6028676,107.210668 L27.5420939,107.174878 L27.4122965,107.25134 L27.4122813,107.098429 L15.3744681,100.009189 L3.0827822,92.7685116 L15.375912,85.5219414 L27.4122817,78.432719 L27.4122965,78.2842103 L27.5383501,78.3584669 L27.6719295,78.2797908 L27.6719295,78.4371568 L39.7061483,85.5263609 L51.9920819,92.7638471 L64.2106403,85.5263609 L76.4356377,78.2842103 L76.4356377,92.7685116 L76.4356377,107.25134 L64.2106403,100.009189 L51.9920819,92.773175 L51.9906428,92.7740226 L51.9906428,92.7740226 Z M76.4356377,78.2797908 L88.660635,85.5219414 L100.887068,92.7685116 L88.660635,100.009189 L76.4356377,107.25134 L76.4356377,92.7685116 L76.4356377,78.2797908 Z" id="Shape"></path>
            </g>
            <path d="M0.3728155,152.259274 L26.1853465,152.259274 L26.1853465,157.079476 L6.4504615,157.079476 L6.4504615,161.550388 L25.5566245,161.550388 L25.5566245,166.405519 L6.4504615,166.405519 L6.4504615,176.5 L0.3728155,176.5 L0.3728155,152.259274 Z M41.0651005,152.259274 L50.6007175,152.259274 L63.5943055,176.5 L56.5386475,176.5 L53.4648955,170.666857 L38.1659935,170.666857 L35.0922415,176.5 L28.0365835,176.5 L41.0651005,152.259274 Z M46.0599475,156.800044 L45.7805155,156.800044 L40.7856685,165.811726 L50.8452205,165.811726 L46.0599475,156.800044 Z M65.6201875,152.259274 L71.6978335,152.259274 L71.6978335,171.60994 L87.2063095,171.60994 L87.2063095,176.5 L65.6201875,176.5 L65.6201875,152.259274 Z M102.365496,176.534929 C97.7315583,176.534929 94.6112655,175.847999 93.0045235,174.474118 C91.3977815,173.100237 90.5944225,170.399088 90.5944225,166.37059 L90.5944225,163.296838 C90.5944225,158.686187 91.4210672,155.67068 93.0743815,154.250227 C94.6112652,152.922918 97.7781295,152.259274 102.575069,152.259274 L107.954136,152.259274 C112.960651,152.259274 116.267229,152.783204 117.873972,153.831079 C119.480714,154.878954 120.284073,157.102745 120.284073,160.502518 L114.066711,160.502518 C114.066711,159.454643 113.717424,158.744427 113.018841,158.371849 C112.133968,157.882841 110.352607,157.63834 107.674704,157.63834 L102.994218,157.63834 C100.199884,157.63834 98.4476296,157.935234 97.737403,158.52903 C97.0271764,159.122825 96.6720685,160.688793 96.6720685,163.22698 L96.6720685,165.881584 C96.6720685,168.210196 97.0329979,169.688842 97.7548675,170.317567 C98.4767371,170.946292 100.153312,171.26065 102.784644,171.26065 L107.744562,171.26065 C110.445751,171.26065 112.180541,171.068542 112.948982,170.684322 C113.717424,170.300101 114.10164,169.432706 114.10164,168.082111 L120.35393,168.082111 C120.35393,171.435312 119.632072,173.64746 118.188333,174.718621 C116.558304,175.929499 113.123654,176.534929 107.884277,176.534929 L102.365496,176.534929 Z M140.892183,176.5 L135.548046,176.5 C130.704533,176.5 127.50274,175.836356 125.942571,174.509047 C124.382401,173.181738 123.602327,170.422375 123.602327,166.230874 L123.602327,163.296838 C123.602327,158.779331 124.376579,155.792932 125.925106,154.337549 C127.473633,152.882167 130.716176,152.154487 135.652832,152.154487 L140.99697,152.154487 C146.166487,152.154487 149.572031,152.882167 151.213702,154.337549 C152.855373,155.792932 153.676197,158.744403 153.676197,163.192051 L153.676197,166.126087 C153.676197,170.527163 152.872838,173.356384 151.266096,174.613834 C149.659353,175.871284 146.201417,176.5 140.892183,176.5 L140.892183,176.5 Z M140.682609,157.63834 L136.211697,157.63834 C133.37079,157.63834 131.571965,157.981805 130.815166,158.668745 C130.058367,159.355686 129.679974,160.933297 129.679974,163.401625 L129.679974,165.916513 C129.679974,168.105408 130.052546,169.52584 130.797702,170.177851 C131.542857,170.829862 133.266004,171.155863 135.967194,171.155863 L140.787396,171.155863 C143.768018,171.155863 145.648344,170.853148 146.428429,170.247709 C147.208514,169.64227 147.598551,168.163624 147.598551,165.811726 L147.598551,163.296838 C147.598551,160.851796 147.196871,159.297471 146.3935,158.633816 C145.590129,157.970162 143.686518,157.63834 140.682609,157.63834 L140.682609,157.63834 Z M185.601303,171.470224 L185.601303,176.5 L179.558585,176.5 L179.558585,172.727668 C179.558585,170.422342 178.184725,169.269697 175.436963,169.269697 L163.526174,169.269697 L163.526174,176.5 L157.448529,176.5 L157.448529,152.259274 L176.170472,152.259274 C179.453815,152.259274 181.805677,152.853061 183.226131,154.040653 C184.646584,155.228245 185.356799,157.219178 185.356799,160.013512 L185.356799,161.690104 C185.356799,163.133843 185.222906,164.239917 184.955116,165.008359 C184.687326,165.776801 184.157574,166.393874 183.365847,166.859596 C184.111002,167.115743 184.669861,167.598923 185.042439,168.309149 C185.415016,169.019376 185.601303,170.073057 185.601303,171.470224 L185.601303,171.470224 Z M179.314083,161.061382 L179.314083,160.572376 C179.314083,159.617645 179.098689,158.959822 178.667896,158.598887 C178.237103,158.237953 177.451208,158.057488 176.310189,158.057488 L163.421388,158.057488 L163.421388,163.506412 L176.449905,163.506412 C177.521066,163.506412 178.26621,163.331769 178.685361,162.982477 C179.104511,162.633185 179.314083,161.992827 179.314083,161.061382 L179.314083,161.061382 Z" id="FALCOR" sketch:type="MSShapeGroup"></path>
        </g>
    </g>
</svg>