<?xml version="1.0" encoding="UTF-8" standalone="no"?>
<svg width="186px" height="169px" viewBox="0 0 186 169" version="1.1" xmlns="http://www.w3.org/2000/svg" xmlns:xlink="http://www.w3.org/1999/xlink" xmlns:sketch="http://www.bohemiancoding.com/sketch/ns">
    <!-- Generator: Sketch 3.3.2 (12043) - http://www.bohemiancoding.com/sketch -->
    <title>Silhouette + FALCOR</title>
    <desc>Created with Sketch.</desc>
    <defs></defs>
    <g id="Intro-Animation" stroke="none" stroke-width="1" fill="none" fill-rule="evenodd" sketch:type="MSPage">
        <g id="Silhouette-+-FALCOR" sketch:type="MSLayerGroup" transform="translate(0.000000, -1.000000)">
            <g id="Silhouette" transform="translate(42.244001, 0.634690)" fill="#FFFFFF" sketch:type="MSShapeGroup">
                <path d="M0.0145969676,57.9803547 L0.0145969676,43.5861464 L0.0145969676,29.1927833 L0.0145969676,29.1927833 L0.0131701963,29.1919381 L0.0145969676,29.191093 L0.0145969676,29.18901 L0.0163552154,29.1900516 L12.1621276,21.996298 L24.3125117,14.7991938 L24.3125117,29.1919381 L24.3125117,43.5861464 L24.3125117,57.9803547 L24.3125117,72.378955 L12.1621276,65.1774588 L0.0145969676,57.9803547 L0.0145969676,57.9803547 Z M48.6132799,29.18901 L36.4628958,21.996298 L24.3139385,14.7948018 L36.4628958,7.59769762 L48.6132799,0.400593472 L48.6132799,14.7948018 L48.6132799,29.18901 Z M24.3125117,72.378955 L12.1635543,79.5745951 L0.0145969676,86.7716993 L0.0145969676,72.378955 L0.0145969676,57.9847467 L12.1635543,65.1818508 L24.3125117,72.378955 Z M24.3125117,14.7948018 L24.3125117,29.18901 L24.3125117,43.5861464 L36.461469,36.3890422 L48.6104264,29.1919381 L36.461469,21.996298 L24.3125117,14.7948018 Z" id="Shape"></path>
                <path d="M54.7098736,57.9788906 L54.7098736,43.5846823 L54.7098736,29.1913193 L54.7098736,29.1913193 L54.7084468,29.1904741 L54.7098736,29.189629 L54.7098736,29.187546 L54.7116318,29.1885876 L66.8574042,21.9948339 L79.0077883,14.7977298 L79.0077883,29.1904741 L79.0077883,43.5846823 L79.0077883,57.9788906 L79.0077883,72.377491 L66.8574042,65.1759948 L54.7098736,57.9788906 L54.7098736,57.9788906 Z M103.308557,29.187546 L91.1581724,21.9948339 L79.0092151,14.7933377 L91.1581724,7.5962336 L103.308557,0.399129456 L103.308557,14.7933377 L103.308557,29.187546 Z M79.0077883,72.377491 L66.8588309,79.5731311 L54.7098736,86.7702352 L54.7098736,72.377491 L54.7098736,57.9832827 L66.8588309,65.1803868 L79.0077883,72.377491 Z M79.0077883,14.7933377 L79.0077883,29.187546 L79.0077883,43.5846823 L91.1567457,36.3875782 L103.305703,29.1904741 L91.1567457,21.9948339 L79.0077883,14.7933377 Z" id="Shape-Copy" transform="translate(79.008502, 43.584682) scale(-1, 1) translate(-79.008502, -43.584682) "></path>
                <path d="M48.874331,93.8419078 L39.511906,99.3871277 L27.499809,106.503155 L27.499809,106.503155 L27.499809,106.432237 L39.4591744,99.3871277 L48.874331,93.8419078 L48.874331,93.8419078 Z M51.6672589,92.1969644 L63.8098207,99.3871277 L75.9587781,106.584232 L63.8098207,113.781336 L51.6608634,120.982832 L39.511906,113.781336 L27.3629487,106.584232 L27.4311766,106.543813 L27.370781,106.508245 L27.2417909,106.584232 L27.2417757,106.432272 L15.2788383,99.3871277 L3.06360717,92.1914876 L15.2802732,84.9899914 L27.2417762,77.9448643 L27.2417909,77.7972793 L27.3670604,77.871074 L27.499809,77.7928873 L27.499809,77.9492745 L39.4591744,84.9943835 L51.668689,92.1868522 L63.8112475,84.9943835 L75.9602049,77.7972793 L75.9602049,92.1914876 L75.9602049,106.584232 L63.8112475,99.3871277 L51.668689,92.1961221 L51.6672589,92.1969644 L51.6672589,92.1969644 Z M75.9602049,77.7928873 L88.1091622,84.9899914 L100.259546,92.1914876 L88.1091622,99.3871277 L75.9602049,106.584232 L75.9602049,92.1914876 L75.9602049,77.7928873 Z" id="Shape"></path>
            </g>
            <path d="M0.33110233,145.259274 L26.1436333,145.259274 L26.1436333,150.079476 L6.40874833,150.079476 L6.40874833,154.550388 L25.5149113,154.550388 L25.5149113,159.405519 L6.40874833,159.405519 L6.40874833,169.5 L0.33110233,169.5 L0.33110233,145.259274 Z M41.0233873,145.259274 L50.5590043,145.259274 L63.5525923,169.5 L56.4969343,169.5 L53.4231823,163.666857 L38.1242803,163.666857 L35.0505283,169.5 L27.9948703,169.5 L41.0233873,145.259274 Z M46.0182343,149.800044 L45.7388023,149.800044 L40.7439553,158.811726 L50.8035073,158.811726 L46.0182343,149.800044 Z M65.5784743,145.259274 L71.6561203,145.259274 L71.6561203,164.60994 L87.1645963,164.60994 L87.1645963,169.5 L65.5784743,169.5 L65.5784743,145.259274 Z M102.323782,169.534929 C97.6898452,169.534929 94.5695524,168.847999 92.9628103,167.474118 C91.3560683,166.100237 90.5527093,163.399088 90.5527093,159.37059 L90.5527093,156.296838 C90.5527093,151.686187 91.3793541,148.67068 93.0326683,147.250227 C94.569552,145.922918 97.7364163,145.259274 102.533356,145.259274 L107.912422,145.259274 C112.918937,145.259274 116.225516,145.783204 117.832258,146.831079 C119.439,147.878954 120.242359,150.102745 120.242359,153.502518 L114.024997,153.502518 C114.024997,152.454643 113.675711,151.744427 112.977127,151.371849 C112.092255,150.882841 110.310894,150.63834 107.63299,150.63834 L102.952504,150.63834 C100.15817,150.63834 98.4059164,150.935234 97.6956898,151.52903 C96.9854633,152.122825 96.6303553,153.688793 96.6303553,156.22698 L96.6303553,158.881584 C96.6303553,161.210196 96.9912847,162.688842 97.7131543,163.317567 C98.4350239,163.946292 100.111599,164.26065 102.74293,164.26065 L107.702848,164.26065 C110.404038,164.26065 112.138827,164.068542 112.907269,163.684322 C113.675711,163.300101 114.059926,162.432706 114.059926,161.082111 L120.312217,161.082111 C120.312217,164.435312 119.590359,166.64746 118.146619,167.718621 C116.516591,168.929499 113.081941,169.534929 107.842564,169.534929 L102.323782,169.534929 Z M140.850469,169.5 L135.506332,169.5 C130.66282,169.5 127.461027,168.836356 125.900857,167.509047 C124.340688,166.181738 123.560614,163.422375 123.560614,159.230874 L123.560614,156.296838 C123.560614,151.779331 124.334866,148.792932 125.883393,147.337549 C127.43192,145.882167 130.674463,145.154487 135.611119,145.154487 L140.955256,145.154487 C146.124774,145.154487 149.530318,145.882167 151.171989,147.337549 C152.81366,148.792932 153.634483,151.744403 153.634483,156.192051 L153.634483,159.126087 C153.634483,163.527163 152.831124,166.356384 151.224382,167.613834 C149.61764,168.871284 146.159704,169.5 140.850469,169.5 L140.850469,169.5 Z M140.640895,150.63834 L136.169983,150.63834 C133.329077,150.63834 131.530252,150.981805 130.773453,151.668745 C130.016654,152.355686 129.63826,153.933297 129.63826,156.401625 L129.63826,158.916513 C129.63826,161.105408 130.010833,162.52584 130.755988,163.177851 C131.501144,163.829862 133.224291,164.155863 135.92548,164.155863 L140.745682,164.155863 C143.726305,164.155863 145.606631,163.853148 146.386716,163.247709 C147.166801,162.64227 147.556837,161.163624 147.556837,158.811726 L147.556837,156.296838 C147.556837,153.851796 147.155158,152.297471 146.351787,151.633816 C145.548416,150.970162 143.644804,150.63834 140.640895,150.63834 L140.640895,150.63834 Z M185.559589,164.470224 L185.559589,169.5 L179.516872,169.5 L179.516872,165.727668 C179.516872,163.422342 178.143012,162.269697 175.39525,162.269697 L163.484461,162.269697 L163.484461,169.5 L157.406815,169.5 L157.406815,145.259274 L176.128759,145.259274 C179.412102,145.259274 181.763964,145.853061 183.184417,147.040653 C184.60487,148.228245 185.315086,150.219178 185.315086,153.013512 L185.315086,154.690104 C185.315086,156.133843 185.181193,157.239917 184.913403,158.008359 C184.645612,158.776801 184.115861,159.393874 183.324133,159.859596 C184.069289,160.115743 184.628147,160.598923 185.000725,161.309149 C185.373303,162.019376 185.559589,163.073057 185.559589,164.470224 L185.559589,164.470224 Z M179.272369,154.061382 L179.272369,153.572376 C179.272369,152.617645 179.056976,151.959822 178.626183,151.598887 C178.19539,151.237953 177.409495,151.057488 176.268475,151.057488 L163.379674,151.057488 L163.379674,156.506412 L176.408191,156.506412 C177.479353,156.506412 178.224497,156.331769 178.643647,155.982477 C179.062797,155.633185 179.272369,154.992827 179.272369,154.061382 L179.272369,154.061382 Z" id="FALCOR" fill="#000000" sketch:type="MSShapeGroup"></path>
        </g>
    </g>
</svg>