<?xml version="1.0" encoding="UTF-8" standalone="no"?>
<svg width="186px" height="170px" viewBox="0 0 186 170" version="1.1" xmlns="http://www.w3.org/2000/svg" xmlns:xlink="http://www.w3.org/1999/xlink" xmlns:sketch="http://www.bohemiancoding.com/sketch/ns">
    <!-- Generator: Sketch 3.3.2 (12043) - http://www.bohemiancoding.com/sketch -->
    <title>Original Icon + FALCOR Copy</title>
    <desc>Created with Sketch.</desc>
    <defs></defs>
    <g id="Intro-Animation" stroke="none" stroke-width="1" fill="none" fill-rule="evenodd" sketch:type="MSPage">
        <g id="Original-Icon-+-FALCOR-Copy" sketch:type="MSLayerGroup">
            <g id="Original-Icon" transform="translate(41.672573, 0.634690)" sketch:type="MSShapeGroup">
                <path d="M24.8393743,43.4062052 L12.6283431,50.6400822 L0.417311813,57.8739592 L0.417311813,43.4062052 L0.417311813,28.9355081 L12.6283431,36.1693851 L24.8393743,43.4062052 Z" id="Shape" fill="#007EC6"></path>
                <path d="M49.2643049,28.9355081 L37.0518396,21.7060456 L24.8408084,14.4677541 L37.0518396,7.23387703 L49.2643049,0 L49.2643049,14.4677541 L49.2643049,28.9355081 Z" id="Shape" fill="#26B2E7"></path>
                <path d="M24.8393743,72.3461277 L12.6283431,79.5785333 L0.417311813,86.8124103 L0.417311813,72.3461277 L0.417311813,57.8783737 L12.6283431,65.1122507 L24.8393743,72.3461277 Z" id="Shape" fill="#0062AE"></path>
                <path d="M24.8393743,43.4062052 L12.626909,36.1723281 L0.415877752,28.9384511 L12.626909,21.7060456 L24.8393743,14.4721685 L24.8393743,28.9384511 L24.8393743,43.4062052 Z" id="Shape" fill="#008BD0"></path>
                <path d="M0.417311813,57.8739592 L12.626909,65.1078362 L24.8393743,72.3461277 L24.8393743,57.8739592 L24.8393743,43.4062052 L12.626909,50.6400822 L0.417311813,57.8739592 Z" id="Shape" fill="#0071BB"></path>
                <path d="M24.8393743,14.4677541 L24.8393743,28.9355081 L24.8393743,43.4062052 L37.0504055,36.1723281 L49.2614368,28.9384511 L37.0504055,21.7060456 L24.8393743,14.4677541 Z" id="Shape" fill="#009DDC"></path>
                <path d="M79.8141109,43.4062052 L92.0251422,50.6400822 L104.236173,57.8739592 L104.236173,43.4062052 L104.236173,28.9355081 L92.0251422,36.1693851 L79.8141109,43.4062052 Z" id="Shape" fill="#934C98"></path>
                <path d="M79.8141109,43.4062052 L79.8141109,28.9384511 L79.8141109,14.4721685 L92.0251422,21.7060456 L104.239042,28.9384511 L92.0251422,36.1723281 L79.8141109,43.4062052 Z" id="Shape" fill="#8A398D"></path>
                <path d="M79.8141109,72.3461277 L92.0251422,79.5785333 L104.236173,86.8124103 L104.236173,72.3461277 L104.236173,57.8783737 L92.0251422,65.1122507 L79.8141109,72.3461277 Z" id="Shape" fill="#B987BB"></path>
                <path d="M55.3906144,28.9355081 L55.3906144,14.4677541 L55.3906144,0 L67.6016456,7.23387703 L79.8126769,14.4677541 L67.6016456,21.7060456 L55.3906144,28.9355081 Z" id="Shape" fill="#752082"></path>
                <path d="M104.236173,57.8739592 L92.0251422,65.1078362 L79.8141109,72.3461277 L79.8141109,57.8739592 L79.8141109,43.4062052 L92.0251422,50.6400822 L104.236173,57.8739592 Z" id="Shape" fill="#A466A7"></path>
                <path d="M79.8141109,14.4677541 L67.6016456,21.7016311 L55.3906144,28.9355081 L67.6016456,36.1723281 L79.8141109,43.4062052 L79.8141109,28.9355081 L79.8141109,14.4677541 Z" id="Shape" fill="#7B1F82"></path>
                <path d="M52.3245915,92.2598905 L64.5384909,99.492296 L76.7495221,106.726173 L64.5384909,113.96005 L52.3274597,121.198342 L52.3245915,106.726173 L52.3245915,92.2598905 Z" id="Shape" fill="#64B32C"></path>
                <path d="M27.9039631,77.787722 L27.9039631,92.2598905 L27.9039631,106.726173 L15.6900637,99.492296 L3.48190063,92.2598905 L15.6914978,85.021599 L27.9039631,77.787722 Z" id="Shape" fill="#8BBE2D"></path>
                <path d="M76.7509562,77.787722 L88.9619874,85.021599 L101.174453,92.2598905 L88.9619874,99.492296 L76.7509562,106.726173 L76.7509562,92.2598905 L76.7509562,77.787722 Z" id="Shape" fill="#4CAD31"></path>
                <path d="M52.3274597,92.2598905 L52.3274597,106.726173 L52.3274597,121.198342 L40.1164284,113.96005 L27.9053972,106.726173 L40.1164284,99.492296 L52.3274597,92.2598905 Z" id="Shape" fill="#76B828"></path>
                <path d="M76.7509562,106.726173 L76.7509562,92.2598905 L76.7509562,77.7921365 L64.539925,85.0260135 L52.3274597,92.2598905 L64.539925,99.492296 L76.7509562,106.726173 Z" id="Shape" fill="#5DB12E"></path>
                <path d="M27.9053972,106.726173 L40.1164284,99.492296 L52.3274597,92.2598905 L40.1164284,85.0260135 L27.9053972,77.7921365 L27.9039631,92.2598905 L27.9053972,106.726173 Z" id="Shape" fill="#82BB24"></path>
            </g>
            <path d="M0.616816616,145.259274 L26.4293476,145.259274 L26.4293476,150.079476 L6.69446262,150.079476 L6.69446262,154.550388 L25.8006256,154.550388 L25.8006256,159.405519 L6.69446262,159.405519 L6.69446262,169.5 L0.616816616,169.5 L0.616816616,145.259274 Z M41.3091016,145.259274 L50.8447186,145.259274 L63.8383066,169.5 L56.7826486,169.5 L53.7088966,163.666857 L38.4099946,163.666857 L35.3362426,169.5 L28.2805846,169.5 L41.3091016,145.259274 Z M46.3039486,149.800044 L46.0245166,149.800044 L41.0296696,158.811726 L51.0892216,158.811726 L46.3039486,149.800044 Z M65.8641886,145.259274 L71.9418346,145.259274 L71.9418346,164.60994 L87.4503106,164.60994 L87.4503106,169.5 L65.8641886,169.5 L65.8641886,145.259274 Z M102.609497,169.534929 C97.9755594,169.534929 94.8552666,168.847999 93.2485246,167.474118 C91.6417826,166.100237 90.8384236,163.399088 90.8384236,159.37059 L90.8384236,156.296838 C90.8384236,151.686187 91.6650683,148.67068 93.3183826,147.250227 C94.8552663,145.922918 98.0221306,145.259274 102.819071,145.259274 L108.198137,145.259274 C113.204652,145.259274 116.511231,145.783204 118.117973,146.831079 C119.724715,147.878954 120.528074,150.102745 120.528074,153.502518 L114.310712,153.502518 C114.310712,152.454643 113.961425,151.744427 113.262842,151.371849 C112.377969,150.882841 110.596608,150.63834 107.918705,150.63834 L103.238219,150.63834 C100.443885,150.63834 98.6916307,150.935234 97.9814041,151.52903 C97.2711776,152.122825 96.9160696,153.688793 96.9160696,156.22698 L96.9160696,158.881584 C96.9160696,161.210196 97.276999,162.688842 97.9988686,163.317567 C98.7207382,163.946292 100.397313,164.26065 103.028645,164.26065 L107.988563,164.26065 C110.689752,164.26065 112.424542,164.068542 113.192984,163.684322 C113.961425,163.300101 114.345641,162.432706 114.345641,161.082111 L120.597932,161.082111 C120.597932,164.435312 119.876073,166.64746 118.432334,167.718621 C116.802305,168.929499 113.367655,169.534929 108.128279,169.534929 L102.609497,169.534929 Z M141.136184,169.5 L135.792047,169.5 C130.948534,169.5 127.746741,168.836356 126.186572,167.509047 C124.626402,166.181738 123.846329,163.422375 123.846329,159.230874 L123.846329,156.296838 C123.846329,151.779331 124.62058,148.792932 126.169107,147.337549 C127.717634,145.882167 130.960177,145.154487 135.896834,145.154487 L141.240971,145.154487 C146.410488,145.154487 149.816032,145.882167 151.457703,147.337549 C153.099374,148.792932 153.920198,151.744403 153.920198,156.192051 L153.920198,159.126087 C153.920198,163.527163 153.116839,166.356384 151.510097,167.613834 C149.903355,168.871284 146.445418,169.5 141.136184,169.5 L141.136184,169.5 Z M140.92661,150.63834 L136.455698,150.63834 C133.614791,150.63834 131.815966,150.981805 131.059167,151.668745 C130.302368,152.355686 129.923975,153.933297 129.923975,156.401625 L129.923975,158.916513 C129.923975,161.105408 130.296547,162.52584 131.041703,163.177851 C131.786858,163.829862 133.510005,164.155863 136.211195,164.155863 L141.031397,164.155863 C144.01202,164.155863 145.892345,163.853148 146.67243,163.247709 C147.452515,162.64227 147.842552,161.163624 147.842552,158.811726 L147.842552,156.296838 C147.842552,153.851796 147.440872,152.297471 146.637501,151.633816 C145.83413,150.970162 143.930519,150.63834 140.92661,150.63834 L140.92661,150.63834 Z M185.845304,164.470224 L185.845304,169.5 L179.802587,169.5 L179.802587,165.727668 C179.802587,163.422342 178.428726,162.269697 175.680965,162.269697 L163.770176,162.269697 L163.770176,169.5 L157.69253,169.5 L157.69253,145.259274 L176.414474,145.259274 C179.697816,145.259274 182.049679,145.853061 183.470132,147.040653 C184.890585,148.228245 185.600801,150.219178 185.600801,153.013512 L185.600801,154.690104 C185.600801,156.133843 185.466907,157.239917 185.199117,158.008359 C184.931327,158.776801 184.401576,159.393874 183.609848,159.859596 C184.355003,160.115743 184.913862,160.598923 185.28644,161.309149 C185.659017,162.019376 185.845304,163.073057 185.845304,164.470224 L185.845304,164.470224 Z M179.558084,154.061382 L179.558084,153.572376 C179.558084,152.617645 179.34269,151.959822 178.911897,151.598887 C178.481104,151.237953 177.695209,151.057488 176.55419,151.057488 L163.665389,151.057488 L163.665389,156.506412 L176.693906,156.506412 C177.765067,156.506412 178.510212,156.331769 178.929362,155.982477 C179.348512,155.633185 179.558084,154.992827 179.558084,154.061382 L179.558084,154.061382 Z" id="FALCOR-Copy" fill="#FFFFFF" sketch:type="MSShapeGroup"></path>
        </g>
    </g>
</svg>