<?xml version="1.0" encoding="UTF-8" standalone="no"?>
<svg width="258px" height="302px" viewBox="0 0 258 302" version="1.1" xmlns="http://www.w3.org/2000/svg" xmlns:xlink="http://www.w3.org/1999/xlink" xmlns:sketch="http://www.bohemiancoding.com/sketch/ns">
    <!-- Generator: Sketch 3.3.2 (12043) - http://www.bohemiancoding.com/sketch -->
    <title>Original Icon</title>
    <desc>Created with Sketch.</desc>
    <defs></defs>
    <g id="Icon-Only" stroke="none" stroke-width="1" fill="none" fill-rule="evenodd" sketch:type="MSPage">
        <g id="Original-Icon" sketch:type="MSLayerGroup" transform="translate(-1.000000, 0.500000)">
            <path d="M61.6912329,107.803936 L31.3638356,125.77004 L1.03643836,143.736145 L1.03643836,107.803936 L1.03643836,71.8644177 L31.3638356,89.8305221 L61.6912329,107.803936 Z" id="Shape" fill="#007EC6" sketch:type="MSShapeGroup"></path>
            <path d="M122.353151,71.8644177 L92.0221918,53.9092771 L61.6947945,35.9322088 L92.0221918,17.9661044 L122.353151,0 L122.353151,35.9322088 L122.353151,71.8644177 Z" id="Shape" fill="#26B2E7" sketch:type="MSShapeGroup"></path>
            <path d="M61.6912329,179.679317 L31.3638356,197.641767 L1.03643836,215.607871 L1.03643836,179.679317 L1.03643836,143.747108 L31.3638356,161.713213 L61.6912329,179.679317 Z" id="Shape" fill="#0062AE" sketch:type="MSShapeGroup"></path>
            <path d="M61.6912329,107.803936 L31.360274,89.8378313 L1.03287671,71.8717269 L31.360274,53.9092771 L61.6912329,35.9431727 L61.6912329,71.8717269 L61.6912329,107.803936 Z" id="Shape" fill="#008BD0" sketch:type="MSShapeGroup"></path>
            <path d="M1.03643836,143.736145 L31.360274,161.702249 L61.6912329,179.679317 L61.6912329,143.736145 L61.6912329,107.803936 L31.360274,125.77004 L1.03643836,143.736145 Z" id="Shape" fill="#0071BB" sketch:type="MSShapeGroup"></path>
            <path d="M61.6912329,35.9322088 L61.6912329,71.8644177 L61.6912329,107.803936 L92.0186301,89.8378313 L122.346027,71.8717269 L92.0186301,53.9092771 L61.6912329,35.9322088 Z" id="Shape" fill="#009DDC" sketch:type="MSShapeGroup"></path>
            <path d="M198.226849,107.803936 L228.554247,125.77004 L258.881644,143.736145 L258.881644,107.803936 L258.881644,71.8644177 L228.554247,89.8305221 L198.226849,107.803936 Z" id="Shape" fill="#934C98" sketch:type="MSShapeGroup"></path>
            <path d="M198.226849,107.803936 L198.226849,71.8717269 L198.226849,35.9431727 L228.554247,53.9092771 L258.888767,71.8717269 L228.554247,89.8378313 L198.226849,107.803936 Z" id="Shape" fill="#8A398D" sketch:type="MSShapeGroup"></path>
            <path d="M198.226849,179.679317 L228.554247,197.641767 L258.881644,215.607871 L258.881644,179.679317 L258.881644,143.747108 L228.554247,161.713213 L198.226849,179.679317 Z" id="Shape" fill="#B987BB" sketch:type="MSShapeGroup"></path>
            <path d="M137.568493,71.8644177 L137.568493,35.9322088 L137.568493,0 L167.89589,17.9661044 L198.223288,35.9322088 L167.89589,53.9092771 L137.568493,71.8644177 Z" id="Shape" fill="#752082" sketch:type="MSShapeGroup"></path>
            <path d="M258.881644,143.736145 L228.554247,161.702249 L198.226849,179.679317 L198.226849,143.736145 L198.226849,107.803936 L228.554247,125.77004 L258.881644,143.736145 Z" id="Shape" fill="#A466A7" sketch:type="MSShapeGroup"></path>
            <path d="M198.226849,35.9322088 L167.89589,53.8983133 L137.568493,71.8644177 L167.89589,89.8378313 L198.226849,107.803936 L198.226849,71.8644177 L198.226849,35.9322088 Z" id="Shape" fill="#7B1F82" sketch:type="MSShapeGroup"></path>
            <path d="M129.953699,229.137269 L160.288219,247.099719 L190.615616,265.065823 L160.288219,283.031928 L129.960822,301.008996 L129.953699,265.065823 L129.953699,229.137269 Z" id="Shape" fill="#64B32C" sketch:type="MSShapeGroup"></path>
            <path d="M69.3024658,193.194096 L69.3024658,229.137269 L69.3024658,265.065823 L38.9679452,247.099719 L8.64767123,229.137269 L38.9715068,211.160201 L69.3024658,193.194096 Z" id="Shape" fill="#8BBE2D" sketch:type="MSShapeGroup"></path>
            <path d="M190.619178,193.194096 L220.946575,211.160201 L251.277534,229.137269 L220.946575,247.099719 L190.619178,265.065823 L190.619178,229.137269 L190.619178,193.194096 Z" id="Shape" fill="#4CAD31" sketch:type="MSShapeGroup"></path>
            <path d="M129.960822,229.137269 L129.960822,265.065823 L129.960822,301.008996 L99.6334247,283.031928 L69.3060274,265.065823 L99.6334247,247.099719 L129.960822,229.137269 Z" id="Shape" fill="#76B828" sketch:type="MSShapeGroup"></path>
            <path d="M190.619178,265.065823 L190.619178,229.137269 L190.619178,193.20506 L160.291781,211.171165 L129.960822,229.137269 L160.291781,247.099719 L190.619178,265.065823 Z" id="Shape" fill="#5DB12E" sketch:type="MSShapeGroup"></path>
            <path d="M69.3060274,265.065823 L99.6334247,247.099719 L129.960822,229.137269 L99.6334247,211.171165 L69.3060274,193.20506 L69.3024658,229.137269 L69.3060274,265.065823 Z" id="Shape" fill="#82BB24" sketch:type="MSShapeGroup"></path>
        </g>
    </g>
</svg>