<?xml version="1.0" encoding="UTF-8" standalone="no"?>
<svg width="258px" height="302px" viewBox="0 0 258 302" version="1.1" xmlns="http://www.w3.org/2000/svg" xmlns:xlink="http://www.w3.org/1999/xlink" xmlns:sketch="http://www.bohemiancoding.com/sketch/ns">
    <!-- Generator: Sketch 3.3.2 (12043) - http://www.bohemiancoding.com/sketch -->
    <title>Silhouette</title>
    <desc>Created with Sketch.</desc>
    <defs></defs>
    <g id="Icon-Only" stroke="none" stroke-width="1" fill="none" fill-rule="evenodd" sketch:type="MSPage">
        <g id="Silhouette" sketch:type="MSLayerGroup" transform="translate(0.000000, -0.500000)" fill="#FFFFFF">
            <path d="M0.0364383562,144.736145 L0.0364383562,108.803936 L0.0364383562,72.8738368 L0.0364383562,72.8738368 L0.0328767123,72.8717269 L0.0364383562,72.8696174 L0.0364383562,72.8644177 L0.0408274636,72.8670178 L30.360274,54.9092771 L60.6912329,36.9431727 L60.6912329,72.8717269 L60.6912329,108.803936 L60.6912329,144.736145 L60.6912329,180.679317 L30.360274,162.702249 L0.0364383562,144.736145 L0.0364383562,144.736145 Z M121.353151,72.8644177 L91.0221918,54.9092771 L60.6947945,36.9322088 L91.0221918,18.9661044 L121.353151,1 L121.353151,36.9322088 L121.353151,72.8644177 Z M60.6912329,180.679317 L30.3638356,198.641767 L0.0364383562,216.607871 L0.0364383562,180.679317 L0.0364383562,144.747108 L30.3638356,162.713213 L60.6912329,180.679317 Z M60.6912329,36.9322088 L60.6912329,72.8644177 L60.6912329,108.803936 L91.0186301,90.8378313 L121.346027,72.8717269 L91.0186301,54.9092771 L60.6912329,36.9322088 Z" id="Shape" sketch:type="MSShapeGroup"></path>
            <path d="M136.572055,144.73249 L136.572055,108.800281 L136.572055,72.8701822 L136.572055,72.8701822 L136.568493,72.8680723 L136.572055,72.8659628 L136.572055,72.8607631 L136.576444,72.8633632 L166.89589,54.9056225 L197.226849,36.9395181 L197.226849,72.8680723 L197.226849,108.800281 L197.226849,144.73249 L197.226849,180.675663 L166.89589,162.698594 L136.572055,144.73249 L136.572055,144.73249 Z M257.888767,72.8607631 L227.557808,54.9056225 L197.230411,36.9285542 L227.557808,18.9624498 L257.888767,0.996345382 L257.888767,36.9285542 L257.888767,72.8607631 Z M197.226849,180.675663 L166.899452,198.638112 L136.572055,216.604217 L136.572055,180.675663 L136.572055,144.743454 L166.899452,162.709558 L197.226849,180.675663 Z M197.226849,36.9285542 L197.226849,72.8607631 L197.226849,108.800281 L227.554247,90.8341767 L257.881644,72.8680723 L227.554247,54.9056225 L197.226849,36.9285542 Z" id="Shape-Copy" sketch:type="MSShapeGroup" transform="translate(197.228630, 108.800281) scale(-1, 1) translate(-197.228630, -108.800281) "></path>
            <path d="M122.004812,234.257207 L98.6334247,248.099719 L68.6476712,265.863432 L68.6476712,265.863432 L68.6476712,265.686398 L98.5017909,248.099719 L122.004812,234.257207 L122.004812,234.257207 Z M128.976787,230.150941 L159.288219,248.099719 L189.615616,266.065823 L159.288219,284.031928 L128.960822,302.008996 L98.6334247,284.031928 L68.3060274,266.065823 L68.4763445,265.964927 L68.3255792,265.876139 L68.0035817,266.065823 L68.0035439,265.686488 L38.1405074,248.099719 L7.64767123,230.137269 L38.1440893,212.160201 L68.003545,194.573476 L68.0035817,194.20506 L68.3162915,194.389274 L68.6476712,194.194096 L68.6476712,194.584485 L98.5017909,212.171165 L128.980357,230.125698 L159.291781,212.171165 L189.619178,194.20506 L189.619178,230.137269 L189.619178,266.065823 L159.291781,248.099719 L128.980357,230.148838 L128.976787,230.150941 L128.976787,230.150941 Z M189.619178,194.194096 L219.946575,212.160201 L250.277534,230.137269 L219.946575,248.099719 L189.619178,266.065823 L189.619178,230.137269 L189.619178,194.194096 Z" id="Shape" sketch:type="MSShapeGroup"></path>
        </g>
    </g>
</svg>