<?xml version="1.0" encoding="utf-8"?>
<!-- Generator: Adobe Illustrator 16.0.4, SVG Export Plug-In . SVG Version: 6.00 Build 0)  -->
<!DOCTYPE svg PUBLIC "-//W3C//DTD SVG 1.1//EN" "http://www.w3.org/Graphics/SVG/1.1/DTD/svg11.dtd">
<svg version="1.1" id="Layer_1" xmlns="http://www.w3.org/2000/svg" xmlns:xlink="http://www.w3.org/1999/xlink" x="0px" y="0px"
	 width="273.334px" height="82.364px" viewBox="0 0 273.334 82.364" enable-background="new 0 0 273.334 82.364"
	 xml:space="preserve">
<polygon fill-rule="evenodd" clip-rule="evenodd" fill="#007EC6" points="16.321,29.498 7.806,34.414 -0.709,39.33 -0.709,29.498 
	-0.709,19.664 7.806,24.58 "/>
<polygon fill-rule="evenodd" clip-rule="evenodd" fill="#26B2E7" points="33.353,19.664 24.837,14.751 16.322,9.832 24.837,4.916 
	33.353,0 33.353,9.832 "/>
<polygon fill-rule="evenodd" clip-rule="evenodd" fill="#0062AE" points="16.321,49.165 7.806,54.08 -0.709,58.996 -0.709,49.165 
	-0.709,39.333 7.806,44.249 "/>
<polygon fill-rule="evenodd" clip-rule="evenodd" fill="#008BD0" points="16.321,29.498 7.805,24.582 -0.71,19.666 7.805,14.751 
	16.321,9.835 16.321,19.666 "/>
<polygon fill-rule="evenodd" clip-rule="evenodd" fill="#0071BB" points="-0.709,39.33 7.805,44.246 16.321,49.165 16.321,39.33 
	16.321,29.498 7.805,34.414 "/>
<polygon fill-rule="evenodd" clip-rule="evenodd" fill="#009DDC" points="16.321,9.832 16.321,19.664 16.321,29.498 24.836,24.582 
	33.351,19.666 24.836,14.751 "/>
<polygon fill-rule="evenodd" clip-rule="evenodd" fill="#934C98" points="54.656,29.498 63.171,34.414 71.686,39.33 71.686,29.498 
	71.686,19.664 63.171,24.58 "/>
<polygon fill-rule="evenodd" clip-rule="evenodd" fill="#8A398D" points="54.656,29.498 54.656,19.666 54.656,9.835 63.171,14.751 
	71.688,19.666 63.171,24.582 "/>
<polygon fill-rule="evenodd" clip-rule="evenodd" fill="#B987BB" points="54.656,49.165 63.171,54.08 71.686,58.996 71.686,49.165 
	71.686,39.333 63.171,44.249 "/>
<polygon fill-rule="evenodd" clip-rule="evenodd" fill="#752082" points="37.625,19.664 37.625,9.832 37.625,0 46.14,4.916 
	54.655,9.832 46.14,14.751 "/>
<polygon fill-rule="evenodd" clip-rule="evenodd" fill="#A466A7" points="71.686,39.33 63.171,44.246 54.656,49.165 54.656,39.33 
	54.656,29.498 63.171,34.414 "/>
<polygon fill-rule="evenodd" clip-rule="evenodd" fill="#7B1F82" points="54.656,9.832 46.14,14.748 37.625,19.664 46.14,24.582 
	54.656,29.498 54.656,19.664 "/>
<polygon fill-rule="evenodd" clip-rule="evenodd" fill="#64B32C" points="35.487,62.698 44.004,67.613 52.519,72.529 44.004,77.445 
	35.489,82.364 35.487,72.529 "/>
<polygon fill-rule="evenodd" clip-rule="evenodd" fill="#8BBE2D" points="18.458,52.863 18.458,62.698 18.458,72.529 9.941,67.613 
	1.428,62.698 9.942,57.779 "/>
<polygon fill-rule="evenodd" clip-rule="evenodd" fill="#4CAD31" points="52.52,52.863 61.035,57.779 69.551,62.698 61.035,67.613 
	52.52,72.529 52.52,62.698 "/>
<polygon fill-rule="evenodd" clip-rule="evenodd" fill="#76B828" points="35.489,62.698 35.489,72.529 35.489,82.364 26.974,77.445 
	18.459,72.529 26.974,67.613 "/>
<polygon fill-rule="evenodd" clip-rule="evenodd" fill="#5DB12E" points="52.52,72.529 52.52,62.698 52.52,52.866 44.005,57.782 
	35.489,62.698 44.005,67.613 "/>
<polygon fill-rule="evenodd" clip-rule="evenodd" fill="#82BB24" points="18.459,72.529 26.974,67.613 35.489,62.698 26.974,57.782 
	18.459,52.866 18.458,62.698 "/>
<text transform="matrix(1 0 0 1 84.8877 43.4492)">
  <tspan x="0" y="0" fill="#58585A" font-family="'FederationBold'" font-size="34.9285">FALCOR</tspan>
</text>
</svg>
