<?xml version="1.0" encoding="UTF-8" standalone="no"?>
<svg width="247px" height="54px" viewBox="0 0 247 54" version="1.1" xmlns="http://www.w3.org/2000/svg" xmlns:xlink="http://www.w3.org/1999/xlink" xmlns:sketch="http://www.bohemiancoding.com/sketch/ns">
    <!-- Generator: Sketch 3.3.2 (12043) - http://www.bohemiancoding.com/sketch -->
    <title>navigation-logo-inverse</title>
    <desc>Created with Sketch.</desc>
    <defs></defs>
    <g id="Icon-+-Name-Inverse" stroke="none" stroke-width="1" fill="none" fill-rule="evenodd" sketch:type="MSPage">
        <g id="navigation-logo-inverse" sketch:type="MSLayerGroup" transform="translate(0.500000, 0.500000)">
            <g id="Group" sketch:type="MSShapeGroup">
                <path d="M10.9146027,18.8360723 L5.5489863,21.9752048 L0.183369863,25.1143373 L0.183369863,18.8360723 L0.183369863,12.5565301 L5.5489863,15.6956627 L10.9146027,18.8360723 Z" id="Shape" fill="#007EC6"></path>
                <path d="M21.6470959,12.5565301 L16.2808493,9.41931325 L10.9152329,6.27826506 L16.2808493,3.13913253 L21.6470959,0 L21.6470959,6.27826506 L21.6470959,12.5565301 Z" id="Shape" fill="#26B2E7"></path>
                <path d="M10.9146027,31.3945181 L5.5489863,34.533012 L0.183369863,37.6721446 L0.183369863,31.3945181 L0.183369863,25.116253 L5.5489863,28.2553855 L10.9146027,31.3945181 Z" id="Shape" fill="#0062AE"></path>
                <path d="M10.9146027,18.8360723 L5.54835616,15.6969398 L0.182739726,12.5578072 L5.54835616,9.41931325 L10.9146027,6.28018072 L10.9146027,12.5578072 L10.9146027,18.8360723 Z" id="Shape" fill="#008BD0"></path>
                <path d="M0.183369863,25.1143373 L5.54835616,28.2534699 L10.9146027,31.3945181 L10.9146027,25.1143373 L10.9146027,18.8360723 L5.54835616,21.9752048 L0.183369863,25.1143373 Z" id="Shape" fill="#0071BB"></path>
                <path d="M10.9146027,6.27826506 L10.9146027,12.5565301 L10.9146027,18.8360723 L16.2802192,15.6969398 L21.6458356,12.5578072 L16.2802192,9.41931325 L10.9146027,6.27826506 Z" id="Shape" fill="#009DDC"></path>
                <path d="M35.0709041,18.8360723 L40.4365205,21.9752048 L45.802137,25.1143373 L45.802137,18.8360723 L45.802137,12.5565301 L40.4365205,15.6956627 L35.0709041,18.8360723 Z" id="Shape" fill="#934C98"></path>
                <path d="M35.0709041,18.8360723 L35.0709041,12.5578072 L35.0709041,6.28018072 L40.4365205,9.41931325 L45.8033973,12.5578072 L40.4365205,15.6969398 L35.0709041,18.8360723 Z" id="Shape" fill="#8A398D"></path>
                <path d="M35.0709041,31.3945181 L40.4365205,34.533012 L45.802137,37.6721446 L45.802137,31.3945181 L45.802137,25.116253 L40.4365205,28.2553855 L35.0709041,31.3945181 Z" id="Shape" fill="#B987BB"></path>
                <path d="M24.3390411,12.5565301 L24.3390411,6.27826506 L24.3390411,0 L29.7046575,3.13913253 L35.070274,6.27826506 L29.7046575,9.41931325 L24.3390411,12.5565301 Z" id="Shape" fill="#752082"></path>
                <path d="M45.802137,25.1143373 L40.4365205,28.2534699 L35.0709041,31.3945181 L35.0709041,25.1143373 L35.0709041,18.8360723 L40.4365205,21.9752048 L45.802137,25.1143373 Z" id="Shape" fill="#A466A7"></path>
                <path d="M35.0709041,6.27826506 L29.7046575,9.41739759 L24.3390411,12.5565301 L29.7046575,15.6969398 L35.0709041,18.8360723 L35.0709041,12.5565301 L35.0709041,6.27826506 Z" id="Shape" fill="#7B1F82"></path>
                <path d="M22.9918082,40.0360723 L28.3586849,43.1745663 L33.7243014,46.3136988 L28.3586849,49.4528313 L22.9930685,52.5938795 L22.9918082,46.3136988 L22.9918082,40.0360723 Z" id="Shape" fill="#64B32C"></path>
                <path d="M12.2612055,33.7558916 L12.2612055,40.0360723 L12.2612055,46.3136988 L6.89432877,43.1745663 L1.5299726,40.0360723 L6.8949589,36.8950241 L12.2612055,33.7558916 Z" id="Shape" fill="#8BBE2D"></path>
                <path d="M33.7249315,33.7558916 L39.0905479,36.8950241 L44.4567945,40.0360723 L39.0905479,43.1745663 L33.7249315,46.3136988 L33.7249315,40.0360723 L33.7249315,33.7558916 Z" id="Shape" fill="#4CAD31"></path>
                <path d="M22.9930685,40.0360723 L22.9930685,46.3136988 L22.9930685,52.5938795 L17.6274521,49.4528313 L12.2618356,46.3136988 L17.6274521,43.1745663 L22.9930685,40.0360723 Z" id="Shape" fill="#76B828"></path>
                <path d="M33.7249315,46.3136988 L33.7249315,40.0360723 L33.7249315,33.7578072 L28.3593151,36.8969398 L22.9930685,40.0360723 L28.3593151,43.1745663 L33.7249315,46.3136988 Z" id="Shape" fill="#5DB12E"></path>
                <path d="M12.2618356,46.3136988 L17.6274521,43.1745663 L22.9930685,40.0360723 L17.6274521,36.8969398 L12.2618356,33.7578072 L12.2612055,40.0360723 L12.2618356,46.3136988 Z" id="Shape" fill="#82BB24"></path>
            </g>
            <g id="Group" transform="translate(61.887700, 12.000000)" fill="#FFFFFF" sketch:type="MSShapeGroup">
                <path d="M39.3077585,0.759621 L48.843239,0.759621 L61.836641,25 L54.781084,25 L51.707376,19.1669405 L36.408693,19.1669405 L33.334985,25 L26.279428,25 L39.3077585,0.759621 Z M44.302534,5.300326 L44.023106,5.300326 L39.0283305,14.311879 L49.0877385,14.311879 L44.302534,5.300326 Z M63.862494,0.759621 L69.940053,0.759621 L69.940053,20.11001 L85.448307,20.11001 L85.448307,25 L63.862494,25 L63.862494,0.759621 Z M100.607276,25.0349285 C95.9734052,25.0349285 92.853157,24.3480082 91.246438,22.974147 C89.639719,21.6002858 88.8363715,18.8991755 88.8363715,14.870735 L88.8363715,11.797027 C88.8363715,7.18644195 89.6630044,4.17097827 91.316295,2.7505455 C92.8531567,1.42325586 96.0199757,0.759621 100.816847,0.759621 L106.195836,0.759621 C111.202279,0.759621 114.508811,1.28354326 116.11553,2.3314035 C117.722249,3.37926374 118.525596,5.60302267 118.525596,9.002747 L112.308324,9.002747 C112.308324,7.95488676 111.959042,7.24468103 111.260468,6.8721085 C110.375609,6.38310706 108.594273,6.13861 105.916408,6.13861 L101.235989,6.13861 C98.441695,6.13861 96.6894661,6.43549928 95.9792497,7.02928675 C95.2690334,7.62307422 94.9139305,9.18901964 94.9139305,11.72717 L94.9139305,14.381736 C94.9139305,16.7103143 95.2748547,18.1889394 95.996714,18.8176555 C96.7185733,19.4463716 98.3951245,19.760725 101.026418,19.760725 L105.986265,19.760725 C108.687416,19.760725 110.422181,19.5686202 111.190612,19.1844047 C111.959042,18.8001893 112.343252,17.9328069 112.343252,16.5822315 L118.595453,16.5822315 C118.595453,19.9353843 117.873605,22.1475005 116.429886,23.2186465 C114.799882,24.4295072 111.36528,25.0349285 106.125979,25.0349285 L100.607276,25.0349285 Z M139.133412,25 L133.789351,25 C128.945908,25 125.744161,24.3363651 124.184014,23.0090755 C122.623866,21.6817859 121.843804,18.922462 121.843804,14.731021 L121.843804,11.797027 C121.843804,7.27958508 122.618045,4.29322819 124.166549,2.83786675 C125.715054,1.38250531 128.95755,0.6548355 133.894137,0.6548355 L139.238197,0.6548355 C144.407641,0.6548355 147.813136,1.38250531 149.454783,2.83786675 C151.096431,4.29322819 151.917243,7.24465693 151.917243,11.6922415 L151.917243,14.6262355 C151.917243,19.0272485 151.113895,21.8564287 149.507176,23.113861 C147.900457,24.3712933 144.44257,25 139.133412,25 L139.133412,25 Z M138.923841,6.13861 L134.452992,6.13861 C131.612127,6.13861 129.813327,6.48207015 129.056539,7.16900075 C128.299751,7.85593135 127.921363,9.43351949 127.921363,11.9018125 L127.921363,14.4166645 C127.921363,16.6055281 128.29393,18.0259396 129.039075,18.6779415 C129.78422,19.3299434 131.507342,19.6559395 134.208493,19.6559395 L139.028626,19.6559395 C142.009206,19.6559395 143.889505,19.3532289 144.669579,18.7477985 C145.449652,18.1423681 145.839684,16.6637431 145.839684,14.311879 L145.839684,11.797027 C145.839684,9.35201978 145.43801,7.79771707 144.63465,7.13407225 C143.831291,6.47042743 141.927707,6.13861 138.923841,6.13861 L138.923841,6.13861 Z M183.841892,19.970296 L183.841892,25 L177.799261,25 L177.799261,21.227722 C177.799261,18.9224295 176.42542,17.7698005 173.677698,17.7698005 L161.76708,17.7698005 L161.76708,25 L155.689521,25 L155.689521,0.759621 L174.411197,0.759621 C177.694492,0.759621 180.046321,1.35339956 181.466754,2.5409745 C182.887186,3.72854944 183.597392,5.71945403 183.597392,8.513748 L183.597392,10.190316 C183.597392,11.6340346 183.463501,12.7400927 183.195714,13.5085235 C182.927928,14.2769543 182.398184,14.8940183 181.606468,15.359734 C182.351613,15.6158776 182.910463,16.0990504 183.283036,16.8092667 C183.655608,17.5194831 183.841892,18.573149 183.841892,19.970296 L183.841892,19.970296 Z M177.554762,9.561603 L177.554762,9.072604 C177.554762,8.11788689 177.339371,7.46007339 176.908584,7.09914375 C176.477797,6.73821411 175.691914,6.557752 174.550911,6.557752 L161.662294,6.557752 L161.662294,12.006598 L174.690625,12.006598 C175.761771,12.006598 176.506904,11.8319572 176.926049,11.4826705 C177.345193,11.1333838 177.554762,10.4930343 177.554762,9.561603 L177.554762,9.561603 Z" id="ALCOR"></path>
                <path d="M0.277898,0.759274 L26.090429,0.759274 L26.090429,5.579476 L6.355544,5.579476 L6.355544,10.050388 L25.461707,10.050388 L25.461707,14.905519 L6.355544,14.905519 L6.355544,25 L0.277898,25 L0.277898,0.759274 Z" id="F"></path>
            </g>
        </g>
    </g>
</svg>