<?xml version="1.0" encoding="UTF-8" standalone="no"?>
<svg width="298px" height="80px" viewBox="0 0 298 80" version="1.1" xmlns="http://www.w3.org/2000/svg" xmlns:xlink="http://www.w3.org/1999/xlink" xmlns:sketch="http://www.bohemiancoding.com/sketch/ns">
    <!-- Generator: Sketch 3.3.3 (12081) - http://www.bohemiancoding.com/sketch -->
    <title>Netflix_Logo_Print_FourColorCMYK</title>
    <desc>Created with Sketch.</desc>
    <defs>
        <path id="path-1" d="M0.00857142857,0 L297.76,0 L297.76,80 L0.00857142857,80 L0.00857142857,0 Z"></path>
    </defs>
    <g id="Page-1" stroke="none" stroke-width="1" fill="none" fill-rule="evenodd" sketch:type="MSPage">
        <g id="Netflix_Logo_Print_FourColorCMYK" sketch:type="MSLayerGroup">
            <mask id="mask-2" sketch:name="Clip 2" fill="white">
                <use xlink:href="#path-1"></use>
            </mask>
            <g id="Clip-2"></g>
            <path d="M198.114286,0 L185.575714,0 L185.575714,70.1248571 C196.971429,70.517 208.318571,71.092 219.62,71.8452857 L219.62,59.4907143 C212.471429,59.0138571 205.302857,58.6095714 198.114286,58.2751429 L198.114286,0 L198.114286,0 Z M297.76,0.007 L283.988571,0.007 L274.908571,21.0507143 L266.751429,0.007 L253.185714,0.007 L267.762857,37.6094286 L251.848571,74.4984286 C256.251429,74.9278571 260.642857,75.386 265.028571,75.8702857 L274.282857,54.4217143 L283.45,78.0655714 C288.224286,78.6795714 292.987143,79.32 297.741429,79.9984286 L297.76,79.9904286 L281.425714,37.8632857 L297.76,0.007 L297.76,0.007 Z M142.535,69.5121429 L155.074286,69.5092857 L155.074286,40.9844286 L172.071429,40.9844286 L172.071429,28.6297143 L155.074286,28.6297143 L155.074286,12.4735714 L177.538571,12.4735714 L177.538571,0.00771428571 L142.535,0.00771428571 L142.535,69.5121429 L142.535,69.5121429 Z M95.7112857,12.4727143 L108.834571,12.4727143 L108.834571,70.2465714 C113.007,70.0891429 117.188,69.9592857 121.373429,69.8497143 L121.373429,12.4727143 L134.496143,12.4727143 L134.496143,0.007 L95.7112857,0.007 L95.7112857,12.4727143 L95.7112857,12.4727143 Z M52.8438571,73.8374286 C64.4005714,72.7872857 76.0105714,71.9218571 87.6732857,71.25 L87.6732857,58.8938571 C80.2217143,59.3245714 72.7914286,59.8344286 65.3827143,60.4171429 L65.3827143,41.7124286 C70.2438571,41.6638571 76.6448571,41.5157143 82.3155714,41.5861429 L82.3155714,29.2304286 C77.7852857,29.2195714 70.5038571,29.2938571 65.3827143,29.3594286 L65.3827143,12.4735714 L87.6732857,12.4735714 L87.6732857,0.00771428571 L52.8438571,0.00771428571 L52.8438571,73.8374286 L52.8438571,73.8374286 Z M28.2475714,45.2752857 L11.9167143,0.007 L0,0.007 L0,80 C4.17157143,79.4062857 8.351,78.8375714 12.5387143,78.2921429 L12.5387143,34.7921429 L27.0597143,76.5061429 C31.627,75.9764286 36.2022857,75.4747143 40.7864286,75.0031429 L40.7864286,0.007 L28.2475714,0.007 L28.2475714,45.2752857 L28.2475714,45.2752857 Z M229.957143,72.5891429 C234.142857,72.9094286 238.321429,73.2531429 242.495714,73.6247143 L242.495714,0.007 L229.957143,0.007 L229.957143,72.5891429 L229.957143,72.5891429 Z" id="Fill-1" fill="#D62F30" sketch:type="MSShapeGroup" mask="url(#mask-2)"></path>
        </g>
    </g>
</svg>